<?xml version="1.0" standalone="no"?>
<!DOCTYPE svg PUBLIC "-//W3C//DTD SVG 20010904//EN"
 "http://www.w3.org/TR/2001/REC-SVG-20010904/DTD/svg10.dtd">
<svg version="1.0" xmlns="http://www.w3.org/2000/svg"
 width="512.000000pt" height="512.000000pt" viewBox="0 0 512.000000 512.000000"
 preserveAspectRatio="xMidYMid meet">
<metadata>
Created by potrace 1.14, written by Peter Selinger 2001-2017
</metadata>
<g transform="translate(0.000000,512.000000) scale(0.100000,-0.100000)"
fill="#000000" stroke="none">
<path d="M2362 4989 c-80 -10 -197 -42 -290 -80 -394 -157 -675 -543 -796
-1089 -56 -254 -69 -459 -86 -1325 -11 -557 -24 -761 -72 -1110 -33 -242 -41
-469 -21 -567 10 -44 8 -49 -23 -93 -42 -60 -60 -132 -44 -179 13 -40 85 -110
153 -150 76 -45 203 -95 346 -137 166 -48 165 -48 157 -6 -4 17 -9 48 -12 68
l-6 36 104 6 c99 5 221 31 297 63 100 42 110 119 21 164 -43 22 -87 79 -118
155 -47 114 -135 484 -148 626 l-7 65 57 38 c71 47 242 129 318 153 55 17 59
20 64 56 4 20 10 39 14 42 3 2 34 -7 68 -21 117 -47 310 -47 436 0 37 14 72
24 76 21 4 -2 10 -22 14 -42 6 -37 8 -39 78 -61 85 -27 251 -108 315 -154 l45
-33 -7 -55 c-24 -194 -107 -558 -149 -655 -25 -56 -90 -135 -111 -135 -7 0
-24 -9 -39 -21 -34 -27 -36 -77 -3 -107 49 -46 208 -91 354 -99 110 -6 109 -6
94 -63 -5 -19 -12 -47 -15 -62 l-6 -27 92 25 c337 90 542 201 579 312 15 45
-2 112 -45 177 -30 46 -31 53 -23 95 20 96 11 325 -22 565 -47 349 -60 553
-71 1105 -18 922 -32 1113 -105 1394 -81 316 -194 539 -354 697 -87 85 -198
149 -298 169 -45 10 -69 22 -107 57 -97 87 -291 162 -476 183 -96 11 -138 11
-228 -1z m443 -679 c51 -20 78 -41 180 -144 125 -127 161 -180 211 -312 23
-62 73 -251 88 -331 l5 -32 -42 15 c-75 27 -225 39 -318 26 -122 -18 -167 -54
-116 -97 25 -22 27 -22 89 -8 125 30 391 13 402 -26 9 -30 35 -275 47 -431 6
-85 12 -281 12 -435 l2 -280 -32 -46 c-69 -99 -235 -221 -428 -314 -284 -137
-428 -134 -725 16 -163 82 -285 166 -364 250 l-69 73 7 230 c10 333 40 623 87
856 11 52 23 98 27 102 4 3 45 12 91 18 90 12 170 7 261 -15 47 -12 58 -12 77
1 31 19 30 59 -1 79 -41 27 -192 40 -302 26 -53 -6 -99 -10 -101 -8 -2 3 10
49 28 103 122 384 323 630 570 699 81 22 237 15 314 -15z"/>
<path d="M1923 3283 c-50 -32 -72 -67 -56 -91 17 -28 41 -25 79 7 40 36 68 42
36 8 -19 -20 -22 -35 -22 -98 0 -66 3 -78 23 -97 35 -33 109 -31 136 4 28 35
30 147 4 184 -17 24 -16 24 16 -2 38 -32 44 -34 65 -12 23 23 20 36 -16 71
-44 42 -76 53 -157 53 -56 0 -74 -4 -108 -27z"/>
<path d="M2975 3293 c-73 -38 -97 -90 -54 -114 18 -9 27 -7 53 11 17 13 25 17
19 9 -8 -8 -13 -42 -13 -89 0 -95 19 -120 92 -120 67 0 88 29 88 120 0 53 -4
73 -21 94 -28 36 -8 33 36 -5 37 -33 57 -33 74 0 9 16 6 25 -14 49 -14 16 -40
37 -59 46 -45 21 -160 21 -201 -1z"/>
<path d="M2489 2764 c-33 -41 50 -90 107 -63 22 11 29 21 29 44 0 30 0 30 -62
31 -41 1 -67 -3 -74 -12z"/>
<path d="M2370 2515 c-21 -26 4 -63 58 -88 55 -25 183 -29 243 -9 47 16 82 53
77 83 -4 33 -29 34 -74 4 -36 -25 -46 -26 -126 -23 -73 2 -90 6 -110 26 -28
26 -50 28 -68 7z"/>
</g>
</svg>
