<?xml version="1.0" encoding="UTF-8"?>
<!DOCTYPE svg PUBLIC "-//W3C//DTD SVG 1.1//EN" "http://www.w3.org/Graphics/SVG/1.1/DTD/svg11.dtd">
<svg xmlns="http://www.w3.org/2000/svg" version="1.1" width="512px" height="512px" style="shape-rendering:geometricPrecision; text-rendering:geometricPrecision; image-rendering:optimizeQuality; fill-rule:evenodd; clip-rule:evenodd" xmlns:xlink="http://www.w3.org/1999/xlink">
<g><path style="opacity:0.995" fill="#5c4666" d="M 401.5,434.5 C 393.374,457.595 377.041,470.762 352.5,474C 344.507,474.5 336.507,474.666 328.5,474.5C 325.455,474.492 322.455,474.159 319.5,473.5C 310.76,472.708 303.26,469.375 297,463.5C 295.406,456.415 298.239,452.248 305.5,451C 310.851,445.467 314.517,438.967 316.5,431.5C 324.025,410.492 328.025,388.826 328.5,366.5C 330.068,364.189 330.902,361.522 331,358.5C 334.069,335.078 335.236,311.744 334.5,288.5C 337.666,248.649 335.999,208.983 329.5,169.5C 329.326,167.139 328.993,164.806 328.5,162.5C 325.769,141.133 318.602,121.466 307,103.5C 299.496,96.9603 292.329,90.1269 285.5,83C 258.815,72.2233 235.982,77.7233 217,99.5C 203.388,116.894 193.888,136.394 188.5,158C 188.836,159.03 189.503,159.53 190.5,159.5C 189.791,160.404 188.791,160.737 187.5,160.5C 187.425,163.206 187.092,165.873 186.5,168.5C 180.818,190.101 177.318,212.101 176,234.5C 174.615,252.482 174.281,270.482 175,288.5C 175.717,289.044 176.217,289.711 176.5,290.5C 175.493,316.116 176.826,341.783 180.5,367.5C 182.769,388.866 187.436,409.532 194.5,429.5C 196.444,437.556 200.111,444.722 205.5,451C 215.792,454.762 217.125,460.429 209.5,468C 203.557,470.149 197.557,471.982 191.5,473.5C 187.5,473.833 183.5,474.167 179.5,474.5C 156.206,477.68 136.372,471.013 120,454.5C 115.676,448.182 112.176,441.516 109.5,434.5C 107.493,420.593 106.993,406.593 108,392.5C 111.817,368.627 114.484,344.627 116,320.5C 117.708,272.511 119.042,224.511 120,176.5C 121.014,137.097 131.348,100.43 151,66.5C 185.234,17.4212 231.067,1.58782 288.5,19C 297.204,22.0456 304.538,27.0456 310.5,34C 333.794,38.9003 351.294,51.7337 363,72.5C 378.347,100.877 387.347,131.21 390,163.5C 391.82,216.158 393.487,268.825 395,321.5C 396.598,345.287 399.265,368.953 403,392.5C 404.007,406.593 403.507,420.593 401.5,434.5 Z"/></g>
<g><path style="opacity:1" fill="#fd967a" d="M 328.5,162.5 C 313.763,157.089 298.763,156.255 283.5,160C 276.551,164.662 277.217,167.829 285.5,169.5C 292.35,167.664 299.35,166.664 306.5,166.5C 314.188,167.339 321.854,168.339 329.5,169.5C 335.999,208.983 337.666,248.649 334.5,288.5C 320.978,304.662 304.311,316.662 284.5,324.5C 265.14,333.792 245.807,333.792 226.5,324.5C 206.978,317.094 190.311,305.761 176.5,290.5C 176.217,289.711 175.717,289.044 175,288.5C 174.281,270.482 174.615,252.482 176,234.5C 177.318,212.101 180.818,190.101 186.5,168.5C 199.543,165.835 212.543,166.168 225.5,169.5C 230.504,169.662 232.338,167.329 231,162.5C 228.53,160.562 225.696,159.396 222.5,159C 211.777,156.911 201.111,157.078 190.5,159.5C 189.503,159.53 188.836,159.03 188.5,158C 193.888,136.394 203.388,116.894 217,99.5C 235.982,77.7233 258.815,72.2233 285.5,83C 292.329,90.1269 299.496,96.9603 307,103.5C 318.602,121.466 325.769,141.133 328.5,162.5 Z"/></g>
<g><path style="opacity:1" fill="#513c57" d="M 186.5,168.5 C 187.092,165.873 187.425,163.206 187.5,160.5C 188.791,160.737 189.791,160.404 190.5,159.5C 201.111,157.078 211.777,156.911 222.5,159C 225.696,159.396 228.53,160.562 231,162.5C 232.338,167.329 230.504,169.662 225.5,169.5C 212.543,166.168 199.543,165.835 186.5,168.5 Z"/></g>
<g><path style="opacity:1" fill="#513b57" d="M 328.5,162.5 C 328.993,164.806 329.326,167.139 329.5,169.5C 321.854,168.339 314.188,167.339 306.5,166.5C 299.35,166.664 292.35,167.664 285.5,169.5C 277.217,167.829 276.551,164.662 283.5,160C 298.763,156.255 313.763,157.089 328.5,162.5 Z"/></g>
<g><path style="opacity:1" fill="#503b57" d="M 213.5,191.5 C 209.378,187.738 204.712,186.738 199.5,188.5C 196.183,189.305 193.517,191.139 191.5,194C 187,194.833 185.167,193 186,188.5C 192.054,180.885 199.887,178.385 209.5,181C 215.701,182.211 219.534,185.711 221,191.5C 218.41,195.432 215.91,195.432 213.5,191.5 Z"/></g>
<g><path style="opacity:1" fill="#4f3a56" d="M 311.5,188.5 C 305.683,186.547 300.683,187.88 296.5,192.5C 291.18,194.92 289.013,193.254 290,187.5C 297.964,180.354 307.131,178.52 317.5,182C 322.282,184.073 324.449,187.573 324,192.5C 323.261,193.574 322.261,194.241 321,194.5C 318.209,191.87 315.042,189.87 311.5,188.5 Z"/></g>
<g><path style="opacity:1" fill="#5e4766" d="M 213.5,191.5 C 213.96,197.372 213.46,203.372 212,209.5C 211.167,210.333 210.333,211.167 209.5,212C 199.501,214.493 194.834,210.66 195.5,200.5C 194.69,195.648 196.024,191.648 199.5,188.5C 204.712,186.738 209.378,187.738 213.5,191.5 Z"/></g>
<g><path style="opacity:1" fill="#5f4766" d="M 311.5,188.5 C 314.866,191.554 316.199,195.388 315.5,200C 316.343,210.493 311.676,214.493 301.5,212C 300.333,210.833 299.167,209.667 298,208.5C 297.827,202.984 297.327,197.651 296.5,192.5C 300.683,187.88 305.683,186.547 311.5,188.5 Z"/></g>
<g><path style="opacity:1" fill="#ed4b51" d="M 248.5,233.5 C 252.83,234.655 257.164,234.822 261.5,234C 264.637,238.095 263.637,240.762 258.5,242C 250.522,243.907 247.188,241.073 248.5,233.5 Z"/></g>
<g><path style="opacity:1" fill="#ed4a51" d="M 236.5,258.5 C 238.199,258.34 239.866,258.506 241.5,259C 243.619,261.393 246.285,262.726 249.5,263C 253.5,263.667 257.5,263.667 261.5,263C 264.923,261.87 268.089,260.37 271,258.5C 276.451,260.224 276.951,263.058 272.5,267C 261.629,272.534 250.629,272.868 239.5,268C 235.634,265.694 234.634,262.527 236.5,258.5 Z"/></g>
<g><path style="opacity:1" fill="#4b3956" d="M 334.5,288.5 C 335.236,311.744 334.069,335.078 331,358.5C 330.902,361.522 330.068,364.189 328.5,366.5C 315.557,357.696 301.557,351.029 286.5,346.5C 286.149,342.316 285.482,338.316 284.5,334.5C 284.5,331.167 284.5,327.833 284.5,324.5C 304.311,316.662 320.978,304.662 334.5,288.5 Z"/></g>
<g><path style="opacity:1" fill="#4b3956" d="M 176.5,290.5 C 190.311,305.761 206.978,317.094 226.5,324.5C 226.5,328.167 226.5,331.833 226.5,335.5C 225.475,338.974 224.808,342.64 224.5,346.5C 208.749,351.377 194.082,358.377 180.5,367.5C 176.826,341.783 175.493,316.116 176.5,290.5 Z"/></g>
<g><path style="opacity:1" fill="#ed4950" d="M 226.5,324.5 C 245.807,333.792 265.14,333.792 284.5,324.5C 284.5,327.833 284.5,331.167 284.5,334.5C 284.292,338.144 282.292,340.311 278.5,341C 260.931,347.606 243.764,346.773 227,338.5C 226.517,337.552 226.351,336.552 226.5,335.5C 226.5,331.833 226.5,328.167 226.5,324.5 Z"/></g>
<g><path style="opacity:1" fill="#fe7264" d="M 284.5,334.5 C 285.482,338.316 286.149,342.316 286.5,346.5C 291.768,356.427 297.435,366.093 303.5,375.5C 302.073,378.764 299.739,381.264 296.5,383C 277.253,388.78 257.586,390.78 237.5,389C 227.535,387.789 218.202,384.789 209.5,380C 208.695,378.887 208.028,377.721 207.5,376.5C 213.155,366.527 218.821,356.527 224.5,346.5C 224.808,342.64 225.475,338.974 226.5,335.5C 226.351,336.552 226.517,337.552 227,338.5C 243.764,346.773 260.931,347.606 278.5,341C 282.292,340.311 284.292,338.144 284.5,334.5 Z"/></g>
<g><path style="opacity:1" fill="#5a80ce" d="M 224.5,346.5 C 218.821,356.527 213.155,366.527 207.5,376.5C 203.46,383.948 200.627,391.948 199,400.5C 196.416,410.001 194.916,419.668 194.5,429.5C 187.436,409.532 182.769,388.866 180.5,367.5C 194.082,358.377 208.749,351.377 224.5,346.5 Z"/></g>
<g><path style="opacity:1" fill="#5a80cf" d="M 286.5,346.5 C 301.557,351.029 315.557,357.696 328.5,366.5C 328.025,388.826 324.025,410.492 316.5,431.5C 315.069,414.846 311.903,398.513 307,382.5C 306.102,379.931 304.935,377.598 303.5,375.5C 297.435,366.093 291.768,356.427 286.5,346.5 Z"/></g>
<g><path style="opacity:0.998" fill="#eedfc4" d="M 303.5,375.5 C 304.935,377.598 306.102,379.931 307,382.5C 311.903,398.513 315.069,414.846 316.5,431.5C 314.517,438.967 310.851,445.467 305.5,451C 298.239,452.248 295.406,456.415 297,463.5C 303.26,469.375 310.76,472.708 319.5,473.5C 319.5,480.833 319.5,488.167 319.5,495.5C 288.617,499.281 257.617,500.448 226.5,499C 213.922,498.326 201.589,496.826 189.5,494.5C 191.461,487.913 192.128,480.913 191.5,473.5C 197.557,471.982 203.557,470.149 209.5,468C 217.125,460.429 215.792,454.762 205.5,451C 200.111,444.722 196.444,437.556 194.5,429.5C 194.916,419.668 196.416,410.001 199,400.5C 200.627,391.948 203.46,383.948 207.5,376.5C 208.028,377.721 208.695,378.887 209.5,380C 218.202,384.789 227.535,387.789 237.5,389C 257.586,390.78 277.253,388.78 296.5,383C 299.739,381.264 302.073,378.764 303.5,375.5 Z"/></g>
<g><path style="opacity:0.97" fill="#4665b6" d="M 109.5,434.5 C 112.176,441.516 115.676,448.182 120,454.5C 136.372,471.013 156.206,477.68 179.5,474.5C 175.366,475.485 171.032,475.818 166.5,475.5C 166.469,480.731 167.469,485.731 169.5,490.5C 147.941,487.037 127.941,479.537 109.5,468C 97.882,456.917 97.882,445.751 109.5,434.5 Z"/></g>
<g><path style="opacity:0.969" fill="#4665b5" d="M 401.5,434.5 C 413.118,445.751 413.118,456.917 401.5,468C 382.876,479.265 362.876,487.098 341.5,491.5C 343.135,486.292 344.135,480.958 344.5,475.5C 338.974,475.821 333.64,475.488 328.5,474.5C 336.507,474.666 344.507,474.5 352.5,474C 377.041,470.762 393.374,457.595 401.5,434.5 Z"/></g>
<g><path style="opacity:0.984" fill="#5981d0" d="M 319.5,473.5 C 322.455,474.159 325.455,474.492 328.5,474.5C 333.64,475.488 338.974,475.821 344.5,475.5C 344.135,480.958 343.135,486.292 341.5,491.5C 334.135,492.706 326.802,494.04 319.5,495.5C 319.5,488.167 319.5,480.833 319.5,473.5 Z"/></g>
<g><path style="opacity:0.981" fill="#5b81d0" d="M 191.5,473.5 C 192.128,480.913 191.461,487.913 189.5,494.5C 182.543,494.011 175.876,492.678 169.5,490.5C 167.469,485.731 166.469,480.731 166.5,475.5C 171.032,475.818 175.366,475.485 179.5,474.5C 183.5,474.167 187.5,473.833 191.5,473.5 Z"/></g>
</svg>
